<svg xmlns="http://www.w3.org/2000/svg" viewBox="0 0 100 100" role="img" aria-label="TensorWorks logo mark (monochrome)">
  <title>TensorWorks</title>
  <line x1="50" y1="50" x2="50" y2="20" stroke="currentColor" stroke-width="2.2" stroke-linecap="round" opacity="0.5"/>
  <line x1="50" y1="50" x2="76" y2="35" stroke="currentColor" stroke-width="2.2" stroke-linecap="round" opacity="0.5"/>
  <line x1="50" y1="50" x2="76" y2="65" stroke="currentColor" stroke-width="2.2" stroke-linecap="round" opacity="0.5"/>
  <line x1="50" y1="50" x2="50" y2="80" stroke="currentColor" stroke-width="2.2" stroke-linecap="round" opacity="0.5"/>
  <line x1="50" y1="50" x2="24" y2="65" stroke="currentColor" stroke-width="2.2" stroke-linecap="round" opacity="0.5"/>
  <line x1="50" y1="50" x2="24" y2="35" stroke="currentColor" stroke-width="2.2" stroke-linecap="round" opacity="0.5"/>
  <polygon points="50,20 76,35 76,65 50,80 24,65 24,35" fill="none" stroke="currentColor" stroke-width="1.2" opacity="0.25"/>
  <circle cx="50" cy="20" r="7.5" fill="currentColor"/>
  <circle cx="76" cy="35" r="7.5" fill="currentColor"/>
  <circle cx="76" cy="65" r="7.5" fill="currentColor"/>
  <circle cx="50" cy="80" r="7.5" fill="currentColor"/>
  <circle cx="24" cy="65" r="7.5" fill="currentColor"/>
  <circle cx="24" cy="35" r="7.5" fill="currentColor"/>
  <circle cx="50" cy="50" r="19" fill="currentColor" opacity="0.15"/>
  <circle cx="50" cy="50" r="15" fill="currentColor"/>
  <circle cx="46" cy="46" r="3.5" fill="#fff" opacity="0.2"/>
</svg>
